<mxfile host="app.diagrams.net" modified="2024-03-06T15:01:02.462Z" agent="Mozilla/5.0 (Windows NT 10.0; Win64; x64) AppleWebKit/537.36 (KHTML, like Gecko) Chrome/123.0.0.0 Safari/537.36 Edg/123.0.0.0" etag="9b4kzznnhVTdSCqGj9M0" version="24.0.2" type="device">
  <diagram name="Page-1" id="M8QVkQqbjzK59h4gxHu3">
    <mxGraphModel dx="1026" dy="425" grid="1" gridSize="10" guides="1" tooltips="1" connect="1" arrows="1" fold="1" page="1" pageScale="1" pageWidth="827" pageHeight="1169" math="0" shadow="0">
      <root>
        <mxCell id="0" />
        <mxCell id="1" parent="0" />
        <mxCell id="2V9F6MiTKQ15M8Ow97if-27" value="" style="rounded=0;whiteSpace=wrap;html=1;" vertex="1" parent="1">
          <mxGeometry x="110" y="640" width="460" height="490" as="geometry" />
        </mxCell>
        <mxCell id="2V9F6MiTKQ15M8Ow97if-28" value="Administrator" style="shape=umlActor;verticalLabelPosition=bottom;verticalAlign=top;html=1;outlineConnect=0;" vertex="1" parent="1">
          <mxGeometry x="40" y="840" width="30" height="60" as="geometry" />
        </mxCell>
        <mxCell id="2V9F6MiTKQ15M8Ow97if-29" value="Manage Appointment" style="ellipse;whiteSpace=wrap;html=1;" vertex="1" parent="1">
          <mxGeometry x="245" y="720" width="120" height="80" as="geometry" />
        </mxCell>
        <mxCell id="2V9F6MiTKQ15M8Ow97if-30" value="Cancel Appointment" style="ellipse;whiteSpace=wrap;html=1;" vertex="1" parent="1">
          <mxGeometry x="280" y="1040" width="120" height="80" as="geometry" />
        </mxCell>
        <mxCell id="2V9F6MiTKQ15M8Ow97if-31" value="View Appointments" style="ellipse;whiteSpace=wrap;html=1;" vertex="1" parent="1">
          <mxGeometry x="280" y="950" width="120" height="80" as="geometry" />
        </mxCell>
        <mxCell id="2V9F6MiTKQ15M8Ow97if-33" value="&lt;b&gt;&lt;font style=&quot;font-size: 14px;&quot;&gt;Appointment Management - UML&amp;nbsp;&lt;/font&gt;&lt;/b&gt;" style="text;html=1;align=center;verticalAlign=middle;whiteSpace=wrap;rounded=0;" vertex="1" parent="1">
          <mxGeometry x="185" y="610" width="255" height="30" as="geometry" />
        </mxCell>
        <mxCell id="2V9F6MiTKQ15M8Ow97if-36" value="Login (Authentication)" style="ellipse;whiteSpace=wrap;html=1;" vertex="1" parent="1">
          <mxGeometry x="130" y="820" width="120" height="80" as="geometry" />
        </mxCell>
        <mxCell id="2V9F6MiTKQ15M8Ow97if-37" value="" style="endArrow=none;html=1;rounded=0;exitX=1;exitY=0.3333333333333333;exitDx=0;exitDy=0;exitPerimeter=0;entryX=0;entryY=0.5;entryDx=0;entryDy=0;" edge="1" parent="1" source="2V9F6MiTKQ15M8Ow97if-28" target="2V9F6MiTKQ15M8Ow97if-36">
          <mxGeometry width="50" height="50" relative="1" as="geometry">
            <mxPoint x="390" y="850" as="sourcePoint" />
            <mxPoint x="440" y="800" as="targetPoint" />
          </mxGeometry>
        </mxCell>
        <mxCell id="2V9F6MiTKQ15M8Ow97if-38" value="" style="endArrow=none;html=1;rounded=0;exitX=0.5;exitY=0;exitDx=0;exitDy=0;entryX=0;entryY=0.5;entryDx=0;entryDy=0;" edge="1" parent="1" source="2V9F6MiTKQ15M8Ow97if-36" target="2V9F6MiTKQ15M8Ow97if-29">
          <mxGeometry width="50" height="50" relative="1" as="geometry">
            <mxPoint x="390" y="850" as="sourcePoint" />
            <mxPoint x="440" y="800" as="targetPoint" />
          </mxGeometry>
        </mxCell>
        <mxCell id="2V9F6MiTKQ15M8Ow97if-40" value="Doctor" style="shape=umlActor;verticalLabelPosition=bottom;verticalAlign=top;html=1;outlineConnect=0;" vertex="1" parent="1">
          <mxGeometry x="40" y="960" width="30" height="60" as="geometry" />
        </mxCell>
        <mxCell id="2V9F6MiTKQ15M8Ow97if-43" value="MediTech System &amp;amp; DB" style="shape=umlActor;verticalLabelPosition=bottom;verticalAlign=top;html=1;outlineConnect=0;" vertex="1" parent="1">
          <mxGeometry x="690" y="750" width="30" height="60" as="geometry" />
        </mxCell>
        <mxCell id="2V9F6MiTKQ15M8Ow97if-44" value="" style="endArrow=none;html=1;rounded=0;exitX=1;exitY=0.5;exitDx=0;exitDy=0;entryX=0;entryY=0.3333333333333333;entryDx=0;entryDy=0;entryPerimeter=0;" edge="1" parent="1" source="2V9F6MiTKQ15M8Ow97if-30" target="2V9F6MiTKQ15M8Ow97if-43">
          <mxGeometry width="50" height="50" relative="1" as="geometry">
            <mxPoint x="390" y="850" as="sourcePoint" />
            <mxPoint x="440" y="800" as="targetPoint" />
          </mxGeometry>
        </mxCell>
        <mxCell id="2V9F6MiTKQ15M8Ow97if-48" value="" style="endArrow=none;html=1;rounded=0;exitX=1;exitY=0.5;exitDx=0;exitDy=0;entryX=0;entryY=0.3333333333333333;entryDx=0;entryDy=0;entryPerimeter=0;" edge="1" parent="1" source="2V9F6MiTKQ15M8Ow97if-31" target="2V9F6MiTKQ15M8Ow97if-43">
          <mxGeometry width="50" height="50" relative="1" as="geometry">
            <mxPoint x="390" y="850" as="sourcePoint" />
            <mxPoint x="440" y="800" as="targetPoint" />
          </mxGeometry>
        </mxCell>
        <mxCell id="2V9F6MiTKQ15M8Ow97if-49" value="Add" style="ellipse;whiteSpace=wrap;html=1;" vertex="1" parent="1">
          <mxGeometry x="390" y="670" width="90" height="40" as="geometry" />
        </mxCell>
        <mxCell id="2V9F6MiTKQ15M8Ow97if-53" value="Edit" style="ellipse;whiteSpace=wrap;html=1;" vertex="1" parent="1">
          <mxGeometry x="400" y="770" width="90" height="40" as="geometry" />
        </mxCell>
        <mxCell id="2V9F6MiTKQ15M8Ow97if-56" value="" style="endArrow=none;html=1;rounded=0;exitX=1;exitY=0.5;exitDx=0;exitDy=0;entryX=0;entryY=0.5;entryDx=0;entryDy=0;" edge="1" parent="1" source="2V9F6MiTKQ15M8Ow97if-29" target="2V9F6MiTKQ15M8Ow97if-49">
          <mxGeometry width="50" height="50" relative="1" as="geometry">
            <mxPoint x="390" y="890" as="sourcePoint" />
            <mxPoint x="440" y="840" as="targetPoint" />
          </mxGeometry>
        </mxCell>
        <mxCell id="2V9F6MiTKQ15M8Ow97if-57" value="" style="endArrow=none;html=1;rounded=0;exitX=1;exitY=0.5;exitDx=0;exitDy=0;entryX=0;entryY=0.5;entryDx=0;entryDy=0;" edge="1" parent="1" source="2V9F6MiTKQ15M8Ow97if-52">
          <mxGeometry width="50" height="50" relative="1" as="geometry">
            <mxPoint x="390" y="890" as="sourcePoint" />
            <mxPoint x="450" y="730" as="targetPoint" />
          </mxGeometry>
        </mxCell>
        <mxCell id="2V9F6MiTKQ15M8Ow97if-59" value="" style="endArrow=none;html=1;rounded=0;exitX=1;exitY=0.5;exitDx=0;exitDy=0;entryX=0;entryY=0.5;entryDx=0;entryDy=0;" edge="1" parent="1" source="2V9F6MiTKQ15M8Ow97if-29" target="2V9F6MiTKQ15M8Ow97if-53">
          <mxGeometry width="50" height="50" relative="1" as="geometry">
            <mxPoint x="390" y="890" as="sourcePoint" />
            <mxPoint x="440" y="840" as="targetPoint" />
          </mxGeometry>
        </mxCell>
        <mxCell id="2V9F6MiTKQ15M8Ow97if-61" value="" style="endArrow=none;html=1;rounded=0;exitX=1;exitY=0.5;exitDx=0;exitDy=0;entryX=0;entryY=0.3333333333333333;entryDx=0;entryDy=0;entryPerimeter=0;" edge="1" parent="1" source="2V9F6MiTKQ15M8Ow97if-49" target="2V9F6MiTKQ15M8Ow97if-43">
          <mxGeometry width="50" height="50" relative="1" as="geometry">
            <mxPoint x="390" y="890" as="sourcePoint" />
            <mxPoint x="440" y="840" as="targetPoint" />
          </mxGeometry>
        </mxCell>
        <mxCell id="2V9F6MiTKQ15M8Ow97if-62" value="" style="endArrow=none;html=1;rounded=0;exitX=1;exitY=0.5;exitDx=0;exitDy=0;entryX=0;entryY=0.3333333333333333;entryDx=0;entryDy=0;entryPerimeter=0;" edge="1" parent="1" source="2V9F6MiTKQ15M8Ow97if-52" target="2V9F6MiTKQ15M8Ow97if-43">
          <mxGeometry width="50" height="50" relative="1" as="geometry">
            <mxPoint x="540" y="730" as="sourcePoint" />
            <mxPoint x="440" y="840" as="targetPoint" />
          </mxGeometry>
        </mxCell>
        <mxCell id="2V9F6MiTKQ15M8Ow97if-63" value="" style="endArrow=none;html=1;rounded=0;entryX=1;entryY=0.5;entryDx=0;entryDy=0;exitX=0;exitY=0.3333333333333333;exitDx=0;exitDy=0;exitPerimeter=0;" edge="1" parent="1" source="2V9F6MiTKQ15M8Ow97if-43" target="2V9F6MiTKQ15M8Ow97if-52">
          <mxGeometry width="50" height="50" relative="1" as="geometry">
            <mxPoint x="390" y="890" as="sourcePoint" />
            <mxPoint x="440" y="840" as="targetPoint" />
          </mxGeometry>
        </mxCell>
        <mxCell id="2V9F6MiTKQ15M8Ow97if-65" value="" style="endArrow=none;html=1;rounded=0;entryX=0;entryY=0.3333333333333333;entryDx=0;entryDy=0;entryPerimeter=0;exitX=1;exitY=0.5;exitDx=0;exitDy=0;" edge="1" parent="1" source="2V9F6MiTKQ15M8Ow97if-53" target="2V9F6MiTKQ15M8Ow97if-43">
          <mxGeometry width="50" height="50" relative="1" as="geometry">
            <mxPoint x="390" y="890" as="sourcePoint" />
            <mxPoint x="440" y="840" as="targetPoint" />
          </mxGeometry>
        </mxCell>
        <mxCell id="2V9F6MiTKQ15M8Ow97if-66" value="Handle Abort/ False Credentialing" style="ellipse;whiteSpace=wrap;html=1;" vertex="1" parent="1">
          <mxGeometry x="135" y="650" width="110" height="60" as="geometry" />
        </mxCell>
        <mxCell id="2V9F6MiTKQ15M8Ow97if-67" value="Extends" style="endArrow=block;endSize=16;endFill=0;html=1;rounded=0;exitX=0.5;exitY=0;exitDx=0;exitDy=0;" edge="1" parent="1" source="2V9F6MiTKQ15M8Ow97if-36" target="2V9F6MiTKQ15M8Ow97if-66">
          <mxGeometry width="160" relative="1" as="geometry">
            <mxPoint x="330" y="870" as="sourcePoint" />
            <mxPoint x="490" y="870" as="targetPoint" />
          </mxGeometry>
        </mxCell>
        <mxCell id="2V9F6MiTKQ15M8Ow97if-68" value="Patient" style="shape=umlActor;verticalLabelPosition=bottom;verticalAlign=top;html=1;outlineConnect=0;" vertex="1" parent="1">
          <mxGeometry x="40" y="1060" width="30" height="60" as="geometry" />
        </mxCell>
        <mxCell id="2V9F6MiTKQ15M8Ow97if-69" value="Include" style="endArrow=open;endSize=12;dashed=1;html=1;rounded=0;entryX=0.5;entryY=1;entryDx=0;entryDy=0;exitX=0;exitY=0.5;exitDx=0;exitDy=0;" edge="1" parent="1" source="2V9F6MiTKQ15M8Ow97if-31" target="2V9F6MiTKQ15M8Ow97if-36">
          <mxGeometry width="160" relative="1" as="geometry">
            <mxPoint x="194.5" y="1090" as="sourcePoint" />
            <mxPoint x="194.5" y="1000" as="targetPoint" />
          </mxGeometry>
        </mxCell>
        <mxCell id="2V9F6MiTKQ15M8Ow97if-70" value="" style="endArrow=none;html=1;rounded=0;exitX=1;exitY=0.3333333333333333;exitDx=0;exitDy=0;exitPerimeter=0;entryX=0;entryY=0.5;entryDx=0;entryDy=0;" edge="1" parent="1" source="2V9F6MiTKQ15M8Ow97if-40" target="2V9F6MiTKQ15M8Ow97if-31">
          <mxGeometry width="50" height="50" relative="1" as="geometry">
            <mxPoint x="390" y="950" as="sourcePoint" />
            <mxPoint x="440" y="900" as="targetPoint" />
          </mxGeometry>
        </mxCell>
        <mxCell id="2V9F6MiTKQ15M8Ow97if-72" value="" style="endArrow=none;html=1;rounded=0;exitX=1;exitY=0.5;exitDx=0;exitDy=0;entryX=0;entryY=0.5;entryDx=0;entryDy=0;" edge="1" parent="1" source="2V9F6MiTKQ15M8Ow97if-29" target="2V9F6MiTKQ15M8Ow97if-52">
          <mxGeometry width="50" height="50" relative="1" as="geometry">
            <mxPoint x="365" y="760" as="sourcePoint" />
            <mxPoint x="450" y="730" as="targetPoint" />
          </mxGeometry>
        </mxCell>
        <mxCell id="2V9F6MiTKQ15M8Ow97if-52" value="Delete" style="ellipse;whiteSpace=wrap;html=1;" vertex="1" parent="1">
          <mxGeometry x="400" y="720" width="90" height="40" as="geometry" />
        </mxCell>
        <mxCell id="2V9F6MiTKQ15M8Ow97if-73" value="" style="endArrow=none;html=1;rounded=0;exitX=1;exitY=0.3333333333333333;exitDx=0;exitDy=0;exitPerimeter=0;entryX=0;entryY=0.5;entryDx=0;entryDy=0;" edge="1" parent="1" source="2V9F6MiTKQ15M8Ow97if-68" target="2V9F6MiTKQ15M8Ow97if-31">
          <mxGeometry width="50" height="50" relative="1" as="geometry">
            <mxPoint x="390" y="950" as="sourcePoint" />
            <mxPoint x="440" y="900" as="targetPoint" />
          </mxGeometry>
        </mxCell>
        <mxCell id="2V9F6MiTKQ15M8Ow97if-74" value="" style="endArrow=none;html=1;rounded=0;entryX=1;entryY=0.3333333333333333;entryDx=0;entryDy=0;entryPerimeter=0;exitX=0;exitY=0.5;exitDx=0;exitDy=0;" edge="1" parent="1" source="2V9F6MiTKQ15M8Ow97if-30" target="2V9F6MiTKQ15M8Ow97if-68">
          <mxGeometry width="50" height="50" relative="1" as="geometry">
            <mxPoint x="390" y="1050" as="sourcePoint" />
            <mxPoint x="440" y="1000" as="targetPoint" />
          </mxGeometry>
        </mxCell>
        <mxCell id="2V9F6MiTKQ15M8Ow97if-75" value="Request Schedule Appointment" style="ellipse;whiteSpace=wrap;html=1;" vertex="1" parent="1">
          <mxGeometry x="280" y="830" width="120" height="80" as="geometry" />
        </mxCell>
        <mxCell id="2V9F6MiTKQ15M8Ow97if-76" value="" style="endArrow=none;html=1;rounded=0;exitX=1;exitY=0.3333333333333333;exitDx=0;exitDy=0;exitPerimeter=0;entryX=0;entryY=1;entryDx=0;entryDy=0;" edge="1" parent="1" source="2V9F6MiTKQ15M8Ow97if-68" target="2V9F6MiTKQ15M8Ow97if-75">
          <mxGeometry width="50" height="50" relative="1" as="geometry">
            <mxPoint x="390" y="950" as="sourcePoint" />
            <mxPoint x="440" y="900" as="targetPoint" />
          </mxGeometry>
        </mxCell>
        <mxCell id="2V9F6MiTKQ15M8Ow97if-77" value="" style="endArrow=none;html=1;rounded=0;exitX=1;exitY=0.5;exitDx=0;exitDy=0;entryX=0;entryY=0.3333333333333333;entryDx=0;entryDy=0;entryPerimeter=0;" edge="1" parent="1" source="2V9F6MiTKQ15M8Ow97if-75" target="2V9F6MiTKQ15M8Ow97if-43">
          <mxGeometry width="50" height="50" relative="1" as="geometry">
            <mxPoint x="390" y="950" as="sourcePoint" />
            <mxPoint x="440" y="900" as="targetPoint" />
          </mxGeometry>
        </mxCell>
        <mxCell id="2V9F6MiTKQ15M8Ow97if-78" value="Include" style="endArrow=open;endSize=12;dashed=1;html=1;rounded=0;entryX=0.5;entryY=0;entryDx=0;entryDy=0;exitX=0.5;exitY=1;exitDx=0;exitDy=0;" edge="1" parent="1" source="2V9F6MiTKQ15M8Ow97if-75" target="2V9F6MiTKQ15M8Ow97if-31">
          <mxGeometry width="160" relative="1" as="geometry">
            <mxPoint x="340" y="880" as="sourcePoint" />
            <mxPoint x="260" y="870" as="targetPoint" />
          </mxGeometry>
        </mxCell>
      </root>
    </mxGraphModel>
  </diagram>
</mxfile>
